<svg width="103" height="32" viewBox="0 0 103 32" fill="none" xmlns="http://www.w3.org/2000/svg">
<g id="Group 1">
<path id="Vector" d="M94.1819 1.31094C91.7555 2.22102 90.946 3.34995 90.946 4.44204C90.8957 6.86891 94.4838 5.56446 94.4028 7.82882C94.4028 8.8494 93.6305 9.97616 91.9021 9.97616C90.0643 9.97616 88.1149 8.55688 88.1149 5.78982C88.1149 2.51354 90.8344 0.728061 93.6305 0L94.1819 1.31094Z" fill="white"/>
<path id="Vector_2" d="M101.815 1.31094C99.389 2.22102 98.5795 3.34995 98.5795 4.44204C98.5292 6.86891 102.117 5.56446 102.036 7.82882C102.036 8.8494 101.264 9.97616 99.5356 9.97616C97.6978 9.97616 95.7484 8.55688 95.7484 5.78982C95.7484 2.51354 98.4679 0.728061 101.264 0L101.815 1.31094Z" fill="white"/>
<path id="Vector_3" d="M91.3004 12.4139C90.038 12.4139 88.8806 12.1148 88.0536 11.6338V31.4041H94.4685V11.6685C93.648 12.13 92.5322 12.4139 91.3004 12.4139Z" fill="white"/>
<path id="Vector_4" d="M0 22.6046H6.61398C6.85246 24.9318 8.36647 27.2221 12.4316 27.2221C16.1378 27.2221 17.6912 25.5255 17.6912 23.8288C17.6912 22.1322 16.7745 20.9491 13.4686 20.3965L9.80391 19.805C3.54875 18.7801 1.03924 16.0564 1.03924 11.3998C1.03924 6.74324 5.26186 2.9946 12.0749 2.9946C19.6844 2.9946 23.4301 7.13761 23.9486 11.9133H17.3346C16.9364 9.66415 15.4618 7.77033 12.0356 7.77033C8.80842 7.77033 7.53289 9.42797 7.53289 10.8884C7.53289 12.6631 8.52838 13.493 11.8365 14.0455L15.1839 14.5591C21.3188 15.545 24.7056 18.3467 24.7056 23.2395C24.7056 28.5266 20.2029 32 12.5125 32C4.8221 32 0.358813 28.0889 0 22.6046Z" fill="white"/>
<path id="Vector_5" d="M40.2374 11.6338H46.3766V13.805C47.4531 12.2665 49.1662 11.0423 51.9142 11.0423C54.8219 11.0423 56.6947 12.5417 57.7318 14.3185C58.887 12.6219 61.1186 11.0423 64.186 11.0423C68.6077 11.0423 71.5964 13.6078 71.5964 18.5396V31.4041H65.2603L65.2996 19.4475C65.2996 17.1983 64.3829 15.935 62.1929 15.935C60.0028 15.935 58.9263 17.4735 58.9263 19.961V31.4041H52.949V19.4475C52.949 17.1983 52.0323 15.935 49.8007 15.935C47.569 15.935 46.6129 17.5536 46.6129 19.961V31.4041H40.2374V11.6338Z" fill="white"/>
<path id="Vector_6" d="M76.4994 3.58395H82.9143V31.4041H76.4994V3.58395Z" fill="white"/>
<path id="Vector_7" d="M31.8293 12.4139C30.6107 12.4139 29.5058 12.1343 28.6875 11.6815V31.4041H35.1024V11.6338C34.2754 12.1148 33.0917 12.4139 31.8293 12.4139Z" fill="white"/>
<path id="Vector_8" d="M31.8359 2.99243C34.1069 2.99243 35.5816 4.5699 35.5816 6.42472C35.5816 8.27954 34.1069 9.97618 31.8359 9.97618C29.5649 9.97618 28.2106 8.35755 28.2106 6.42472C28.2106 4.49189 29.5649 2.99243 31.8359 2.99243Z" fill="white"/>
</g>
</svg>
