<svg width="41" height="40" viewBox="0 0 41 40" fill="none" xmlns="http://www.w3.org/2000/svg">
<path id="Union" fill-rule="evenodd" clip-rule="evenodd" d="M24.131 11.5987C29.3143 7.33122 33.5411 5.04114 34.6618 6.16176C35.7628 7.26279 33.5713 11.3624 29.4468 16.4216C36.0008 17.0783 40.5 18.4341 40.5 20C40.5 21.5622 36.0225 22.9152 29.4942 23.5737C33.7712 28.7652 36.068 33.0006 34.946 34.1225C33.8047 35.2638 29.4412 32.8672 24.1268 28.4468C23.49 35.2709 22.1054 40 20.5 40C18.9378 40 17.5848 35.5225 16.9263 28.9942C11.7348 33.2712 7.49941 35.568 6.37749 34.446C5.23615 33.3047 7.63281 28.9411 12.0532 23.6268C5.22908 22.99 0.5 21.6054 0.5 20C0.5 18.391 5.25012 17.0039 12.0987 16.369C7.83122 11.1857 5.54114 6.95886 6.66176 5.83824C7.76279 4.73721 11.8624 6.92868 16.9216 11.0532C17.5783 4.49918 18.9341 0 20.5 0C22.109 0 23.4961 4.75012 24.131 11.5987Z" fill="white"/>
</svg>
